<?xml version="1.0" encoding="UTF-8" standalone="no"?>
<!-- Created with Inkscape (http://www.inkscape.org/) -->

<svg
   version="1.1"
   id="svg1"
   width="256"
   height="256"
   viewBox="0 0 256 256"
   sodipodi:docname="dark_sos_logo.svg"
   inkscape:version="1.3.2 (091e20e, 2023-11-25, custom)"
   inkscape:export-filename="dark_sos_logo.png"
   inkscape:export-xdpi="96"
   inkscape:export-ydpi="96"
   xmlns:inkscape="http://www.inkscape.org/namespaces/inkscape"
   xmlns:sodipodi="http://sodipodi.sourceforge.net/DTD/sodipodi-0.dtd"
   xmlns="http://www.w3.org/2000/svg"
   xmlns:svg="http://www.w3.org/2000/svg">
  <defs
     id="defs1">
    <clipPath
       clipPathUnits="userSpaceOnUse"
       id="clipPath43">
      <path
         id="path44"
         style="fill:#ff0000;fill-opacity:1;fill-rule:nonzero;stroke:none"
         d="m 114.95921,137.69985 v 52.20117 h 8.75977 c -1.00301,-0.322 -1.90228,-0.87524 -2.74415,-1.52539 -0.79425,-0.61896 -1.36218,-1.41331 -1.77343,-2.32226 -0.23427,-0.62082 -0.45535,-1.27789 -0.3418,-1.95118 0.0258,-0.15285 0.0842,-0.29827 0.12695,-0.44726 0.18303,-0.40647 0.44428,-0.76199 0.73633,-1.0918 -0.62491,-0.66201 -0.1603,-1.76367 1.40039,-1.76367 h 0.51172 c 0.52536,-0.62023 1.16028,-1.08542 1.875,-1.46484 1.17486,-0.56424 2.46827,-0.69389 3.74805,-0.8086 1.52614,-0.11181 3.05644,-0.14107 4.58594,-0.16797 0.569,-0.0105 1.13646,-0.0214 1.70507,-0.0215 0.56861,-8e-5 1.13854,0.009 1.70703,0.0391 1.04659,-0.007 2.00479,0.20761 2.99219,0.53516 0.91285,0.31148 1.80736,0.67627 2.67383,1.09961 0.671,0.35633 1.3499,0.69448 2.00586,1.07812 0.089,0.0577 0.18418,0.10469 0.27539,0.1582 0.0888,-0.022 0.18315,-0.0366 0.28516,-0.041 0.29142,-0.0126 0.63461,0.0514 1.01757,0.21875 0.011,0.005 0.0222,0.009 0.0332,0.0137 0.17365,-0.34503 0.58197,-0.61149 1.20703,-0.62695 0.17399,-0.004 0.36481,0.0109 0.57031,0.0488 0.66988,0.12347 1.34588,0.20789 2.02344,0.27539 l 0.39062,0.0508 c 1.29832,0.16797 1.72771,1.00846 1.41797,1.61523 0.87329,0.30988 1.16819,0.95125 0.98633,1.45508 0.52012,0.69765 -0.0212,1.72003 -1.54297,1.62891 -0.10824,-0.006 -0.21603,-0.0164 -0.32422,-0.0234 0.0897,0.85971 -0.34918,1.39325 -0.86718,1.49805 -0.12481,0.20681 -0.25392,0.40548 -0.36524,0.58593 -0.46423,0.66945 -0.89169,1.41887 -1.5039,1.95508 h 8.69531 v -52.20117 z m 18.55078,42.88867 c -0.54222,8.5e-4 -1.0843,0.0103 -1.62695,0.0195 -1.47604,0.0259 -2.95291,0.0544 -4.42578,0.16016 -0.99056,0.0876 -1.99961,0.15859 -2.91993,0.57031 -0.0754,0.036 -0.14372,0.0804 -0.21484,0.1211 0.004,0.007 0.006,0.0146 0.01,0.0215 2.68714,0.0878 5.36397,0.37629 8.03906,0.63281 2.34275,0.24778 4.69517,0.38665 7.04297,0.57227 0.67513,0.0661 1.35254,0.11238 2.02929,0.15429 -0.50003,-0.27769 -1.00842,-0.53861 -1.51367,-0.80859 -0.77456,-0.38169 -1.57632,-0.70303 -2.39258,-0.98437 -0.81099,-0.27152 -1.5345,-0.43648 -2.40039,-0.42188 -0.54208,-0.0289 -1.08474,-0.038 -1.62695,-0.0371 z m -12.44922,3.9043 c 0.0108,0.11917 0.0552,0.24008 0.10156,0.35937 h 1.37305 c -0.49346,-0.1104 -0.98582,-0.2291 -1.47461,-0.35937 z" />
    </clipPath>
  </defs>
  <sodipodi:namedview
     id="namedview1"
     pagecolor="#333333"
     bordercolor="#000000"
     borderopacity="0.25"
     inkscape:showpageshadow="2"
     inkscape:pageopacity="0.0"
     inkscape:pagecheckerboard="0"
     inkscape:deskcolor="#d1d1d1"
     showgrid="false"
     inkscape:zoom="4.4414062"
     inkscape:cx="165.1504"
     inkscape:cy="123.49692"
     inkscape:window-width="2560"
     inkscape:window-height="1351"
     inkscape:window-x="-9"
     inkscape:window-y="-9"
     inkscape:window-maximized="1"
     inkscape:current-layer="g1" />
  <g
     inkscape:groupmode="layer"
     inkscape:label="Image"
     id="g1">
    <ellipse
       style="fill:none;fill-opacity:1;stroke:#007a9f;stroke-width:2.89417;stroke-dasharray:none;stroke-opacity:1"
       id="path8"
       cx="135.09236"
       cy="163.79948"
       rx="18.686359"
       ry="24.652935"
       clip-path="url(#clipPath43)"
       transform="translate(0.45030782,-2.7018474)" />
    <path
       style="fill:#e6e6e6"
       d="m 98.463978,211.5911 c -0.3708,-0.36784 -0.67418,-1.25983 -0.67418,-1.9822 0,-1.07088 6.797392,-1.3134 36.812472,-1.3134 34.52491,0 36.79169,0.10712 36.47807,1.72384 -0.30999,1.59798 -2.9483,1.74269 -36.1383,1.9822 -19.69215,0.1421 -36.107272,-0.0426 -36.478062,-0.41044 z M 58.071242,201.40016 c -3.134023,-3.10904 -2.404261,-6.76859 3.249659,-16.29613 5.170816,-8.71345 5.289841,-8.82869 9.621157,-9.31512 l 4.38557,-0.49253 -0.250434,-5.9669 c -0.433365,-10.32545 3.668129,-21.94221 12.203324,-34.56378 5.01312,-7.41324 5.28841,-8.36633 2.96823,-10.27656 -0.8708,-0.71692 -2.87736,-3.54165 -4.45902,-6.27715 -1.58166,-2.7355 -2.87994,-4.19792 -2.88507,-3.24981 -0.005,0.94811 -0.42877,1.72384 -0.94144,1.72384 -2.799437,0 -2.483133,-20.292399 0.52603,-33.747056 1.35134,-6.04218 1.46892,-8.166924 0.56128,-10.143095 -2.441958,-5.31679 -1.20584,-8.431364 3.81667,-9.616651 1.36532,-0.322209 5.2272,-3.234219 8.58194,-6.471132 10.469232,-10.101505 22.977552,-14.856627 39.080322,-14.856627 16.31404,0 30.57847,5.586251 40.79507,15.976209 3.16841,3.222174 6.44062,5.665735 7.58706,5.665735 3.08191,0 4.58093,2.444431 3.76991,6.14753 -1.18879,5.427923 -1.00002,9.79218 0.76549,17.698364 2.61664,11.717625 2.11861,30.753833 -0.74295,28.397883 -0.85833,-0.70668 -1.78016,0.0597 -3.30134,2.74472 -1.16076,2.04884 -3.02518,4.54635 -4.14314,5.55002 -2.79842,2.51235 -2.58393,3.74464 1.59178,9.14512 1.99344,2.57813 5.67982,8.89234 8.19195,14.03158 4.47308,9.15087 4.56752,9.54296 4.56752,18.96218 v 9.61811 h 3.55053 c 4.09723,0 5.48946,1.30243 11.65606,10.9042 4.6772,7.2827 5.31276,11.58963 2.17028,14.70705 -1.95062,1.93508 -3.30988,1.9701 -76.45822,1.9701 -73.148338,0 -74.507595,-0.035 -76.458218,-1.9701 z M 208.9858,197.97157 c 1.28849,-1.54017 -0.57398,-5.46408 -7.13919,-15.04106 -2.71078,-3.95434 -3.13578,-4.18646 -7.66543,-4.18646 -3.14108,0 -5.24075,0.53217 -6.086,1.54253 -1.98535,2.37312 -6.47262,4.36776 -9.826,4.36776 -1.66551,0 -3.0282,0.44327 -3.0282,0.98505 0,0.54178 -1.45221,0.9326 -3.22713,0.8685 l -3.22713,-0.11654 2.97889,-0.75196 c 2.76225,-0.69727 2.79835,-0.7607 0.49648,-0.87218 -1.36533,-0.0661 -3.94542,-1.00512 -5.73354,-2.08665 -3.04778,-1.84341 -5.01647,-1.96641 -31.47407,-1.96641 h -28.22292 l -4.76912,2.52324 c -4.193802,2.21886 -5.595022,2.46112 -11.615452,2.00824 -6.14504,-0.46225 -7.11132,-0.829 -9.43316,-3.58044 -2.299799,-2.72531 -3.082616,-3.03011 -7.055162,-2.74703 -4.289301,0.30566 -4.638784,0.57496 -8.722284,6.72123 -4.52705,6.81388 -5.74463,9.9231 -4.820982,12.3109 0.50204,1.29787 9.594181,1.47978 73.96131,1.47978 63.59658,0 73.55172,-0.19461 74.60909,-1.4585 z M 79.91645,194.68072 c 0,-1.2098 2.254388,-3.13104 3.673968,-3.13104 2.13493,0 1.45731,1.57863 -1.19156,2.77591 -1.36532,0.61713 -2.482408,0.77693 -2.482408,0.35513 z m 106.32705,-0.32074 c -1.84213,-0.69028 -2.12997,-1.1706 -1.23411,-2.05932 0.89586,-0.88873 1.55824,-0.77232 2.83987,0.49909 2.11691,2.10004 1.48176,2.71718 -1.60576,1.56023 z M 67.007918,192.69284 c 0,-0.71605 4.241169,-3.11326 5.508024,-3.11326 1.429159,0 0.07306,1.82414 -2.079372,2.79703 -3.01517,1.36286 -3.428652,1.40099 -3.428652,0.31623 z m 26.68337,-0.4662 c 1.46609,-1.78799 6.08444,-2.30182 6.08444,-0.67696 0,0.54178 -0.85712,0.98505 -1.90472,0.98505 -1.04759,0 -2.72322,0.30463 -3.72361,0.67695 -1.60116,0.59592 -1.65576,0.478 -0.45611,-0.98504 z m 28.922602,0.0309 c 0,-1.27766 2.82755,-1.94417 5.46352,-1.28786 3.77332,0.93949 2.96275,2.05756 -1.49166,2.05756 -2.18452,0 -3.97186,-0.34636 -3.97186,-0.7697 z m 34.25726,0.32076 c -3.93643,-0.656 -3.94675,-0.66907 -1.15717,-1.4655 2.08805,-0.59614 3.23245,-0.38918 4.43288,0.80168 0.89,0.88291 1.41072,1.54238 1.15716,1.4655 -0.25356,-0.0769 -2.24835,-0.43763 -4.43287,-0.80168 z m 16.13566,0.23592 c -1.51667,-0.22792 -2.73065,-1.03816 -2.73065,-1.8225 0,-0.77668 0.20239,-1.41215 0.44976,-1.41215 1.26686,0 5.50802,2.39721 5.50802,3.11326 0,0.45482 -0.1117,0.76052 -0.24824,0.67935 -0.13653,-0.0812 -1.47703,-0.33226 -2.97889,-0.55796 z m 25.07234,-0.77203 c -0.74846,-0.89465 -0.82847,-1.47757 -0.20279,-1.47757 1.82403,0 4.17465,1.16864 4.17465,2.07549 0,1.40942 -2.62285,1.01458 -3.97186,-0.59792 z m -88.92872,-1.01637 c 1.06011,-0.79544 2.2035,-1.44625 2.54087,-1.44625 0.33735,0 1.48074,0.65081 2.54085,1.44625 1.78674,1.34064 1.60121,1.44624 -2.54085,1.44624 -4.14208,0 -4.3276,-0.1056 -2.54087,-1.44624 z m 30.34385,0.63874 c 0,-1.63382 4.41716,-2.0654 5.91644,-0.57807 1.28451,1.27427 1.01685,1.44823 -2.22829,1.44823 -2.02848,0 -3.68815,-0.39157 -3.68815,-0.87016 z m -57.095422,-4.05508 c 0.33753,-0.54178 1.59269,-0.97826 2.78925,-0.96997 1.7687,0.0123 1.89702,0.19366 0.68613,0.96997 -1.95626,1.25415 -4.25672,1.25415 -3.47538,0 z M 69.98681,186.1319 c 0.679872,-0.81266 2.410211,-1.46022 3.845198,-1.43901 2.498594,0.0369 2.467597,0.0995 -0.732067,1.47757 -4.197347,1.80779 -4.653049,1.80214 -3.113131,-0.0386 z m 25.630878,0.80468 c 0.7168,-0.28455 1.57323,-0.24956 1.90319,0.0778 0.32995,0.32733 -0.25652,0.56014 -1.30327,0.51737 -1.15675,-0.0473 -1.39204,-0.28068 -0.59992,-0.59513 z m 99.234332,-0.006 c -2.01815,-0.5232 -2.35549,-2.27613 -0.43803,-2.27613 0.71482,0 2.16703,0.65081 3.22714,1.44625 1.99943,1.50023 0.97382,1.8054 -2.78911,0.82988 z m -85.64313,-1.29108 c 0.33752,-0.54178 1.7044,-0.98505 3.03748,-0.98505 1.3331,0 2.42381,0.44327 2.42381,0.98505 0,0.54178 -1.36687,0.98505 -3.03748,0.98505 -1.77215,0 -2.78185,-0.41035 -2.42381,-0.98505 z m 14.39796,0 c 0,-0.54178 1.56392,-0.98505 3.47538,-0.98505 1.91145,0 3.47537,0.44327 3.47537,0.98505 0,0.54178 -1.56392,0.98505 -3.47537,0.98505 -1.91146,0 -3.47538,-0.44327 -3.47538,-0.98505 z m 15.39095,0 c -0.74052,-1.18863 3.16946,-1.18863 5.95778,0 1.60052,0.68229 1.27466,0.86002 -1.67909,0.91581 -2.01575,0.0381 -3.94117,-0.37403 -4.27869,-0.91581 z m 13.90149,0 c -0.79502,-1.27611 5.45672,-1.27611 7.44723,0 1.09259,0.70046 0.38065,0.9589 -2.67205,0.96997 -2.28882,0.008 -4.43765,-0.42819 -4.77518,-0.96997 z m 29.55958,0.30242 c 0.96612,-0.24975 2.30662,-0.23333 2.97889,0.0365 0.67227,0.26983 -0.11819,0.47417 -1.75659,0.45409 -1.63839,-0.0201 -2.18842,-0.24084 -1.2223,-0.49059 z m -93.391842,-8.9231 c 1.0666,-4.08333 2.4776,-4.08273 3.54444,0.002 0.65534,2.50887 1.35958,3.2014 3.25553,3.2014 2.04835,0 2.46321,-0.52861 2.70579,-3.44766 0.15758,-1.89622 0.51674,-4.10016 0.79814,-4.89764 0.776882,-2.20167 2.348032,0.67361 2.407102,4.40511 0.0453,2.86105 0.0957,2.89241 1.5834,0.98505 2.62563,-3.36632 1.36414,-11.51613 -2.52583,-16.31809 -3.596942,-4.44023 -3.318662,-6.07079 0.65693,-3.84917 3.79902,2.12297 7.21987,9.18483 7.21987,14.90443 v 4.77031 h 25.72257 25.72258 l -0.50823,-3.75889 c -0.93926,-6.94692 4.86725,-16.92713 9.84826,-16.92713 1.43649,0 1.1308,0.81568 -1.66965,4.45522 -3.77418,4.90504 -5.25721,10.26515 -3.89654,14.08327 1.20683,3.38642 3.36588,3.94619 3.36588,0.87265 0,-1.33325 0.67025,-2.97591 1.48945,-3.65037 1.29142,-1.06324 1.48944,-0.54632 1.48944,3.88809 0,4.71883 0.17021,5.09003 2.20085,4.7996 1.6245,-0.23234 2.43043,-1.28213 3.07753,-4.00871 1.13013,-4.76181 2.28839,-4.67805 3.78388,0.27364 1.35712,4.49354 3.20602,4.69118 3.64072,0.38918 0.52401,-5.18573 1.15314,-6.08667 2.74862,-3.93613 1.97518,2.66232 2.75995,1.37186 2.68413,-4.41373 -0.0579,-4.41882 0.0882,-4.7806 1.29404,-3.20306 1.29511,1.6944 1.36025,1.68535 1.37911,-0.19169 0.0708,-7.04621 -7.17969,-22.62279 -15.07373,-32.38362 l -4.69097,-5.80031 4.38936,-4.84309 c 7.76218,-8.56459 10.74796,-20.09612 8.54105,-32.986819 -1.86446,-10.89047 -2.06535,-11.174374 -4.11554,-5.816401 -2.26305,5.914249 -4.32981,8.239099 -9.36257,10.531727 -7.9718,3.631486 -17.09369,1.538865 -22.8668,-5.245795 -3.40461,-4.001167 -6.375,-10.304449 -6.40309,-13.587609 -0.0204,-2.390212 -0.22539,-2.462621 -6.9701,-2.462621 h -6.94904 l -0.0243,2.955145 c -0.0536,6.531013 -7.5753,16.678148 -14.19502,19.149795 -9.80398,3.66058 -21.829952,-1.996154 -24.085992,-11.329491 -0.38488,-1.592284 -0.9477,-3.323677 -1.25071,-3.847538 -0.83589,-1.445143 -3.06127,7.932461 -3.78423,15.946511 -0.91786,10.174496 2.70623,19.814636 10.65713,28.348086 l 2.7534,2.95514 -4.54514,5.91029 c -2.49982,3.25066 -6.56643,10.04121 -9.03692,15.0901 -3.855491,7.87942 -4.555083,10.26452 -4.938622,16.83712 -0.478088,8.19285 0.703789,12.25383 3.280762,11.27284 0.99159,-0.37747 1.4743,0.0646 1.4743,1.35008 0,4.49474 3.9761,4.13333 5.17872,-0.47073 z m 9.71574,-67.53483 c 0,-1.05127 6.563552,-4.42802 9.929632,-5.10849 4.50766,-0.91124 2.94943,0.61233 -2.97889,2.91262 -2.45758,0.95358 -5.02688,1.95421 -5.70954,2.22362 -0.682662,0.2694 -1.241202,0.25692 -1.241202,-0.0277 z m 64.046162,-3.30398 c -3.27678,-1.85985 -4.8407,-3.08122 -3.47537,-2.71414 3.41361,0.91777 9.66096,4.11168 10.41735,5.32579 0.99169,1.59179 -0.57379,1.00285 -6.94198,-2.61165 z m -42.74258,0.20788 c -1.34051,-1.32981 -2.43728,-3.1029 -2.43728,-3.94019 0,-2.00959 0.59142,-1.92069 2.97889,0.44775 3.47922,3.45148 9.91848,1.82783 11.9386,-3.010312 1.47292,-3.527588 0.58341,-6.249833 -2.49713,-7.642235 -2.73172,-1.234734 -4.2815,-5.603396 -2.80921,-7.918861 2.17754,-3.424593 10.79984,-3.707554 14.40307,-0.472669 2.71057,2.433474 2.18888,4.861038 -1.67253,7.782802 -4.48379,3.39269 -4.84368,8.080458 -0.85905,11.189775 3.46424,2.70325 6.86122,2.57963 9.82188,-0.35742 2.56408,-2.543642 3.99602,-1.84693 2.94646,1.43359 -0.71898,2.24725 -5.31412,4.90562 -8.47964,4.90562 -2.31036,0 -7.89799,-2.91684 -7.89799,-4.12289 0,-0.40864 -1.62627,0.35184 -3.61394,1.68995 -4.63884,3.12291 -8.68414,3.12808 -11.82213,0.0151 z m -22.633692,-3.53156 c 1.26497,-1.27733 11.338712,-3.861257 15.148842,-3.885689 3.81199,-0.02444 1.79976,0.980572 -5.02931,2.511929 -3.46886,0.77786 -7.4241,1.66697 -8.789422,1.97581 -1.9011,0.43003 -2.21257,0.28905 -1.33011,-0.60205 z m 65.388312,-1.20983 c -8.7696,-2.258287 -8.46661,-3.661818 0.37129,-1.719934 5.49884,1.208214 11.94471,3.928184 9.04983,3.818754 -0.8192,-0.031 -5.0587,-0.97544 -9.42112,-2.09882 z M 114.82884,89.634017 c 3.98635,-2.687204 8.77801,-11.108968 8.77801,-15.428131 0,-1.480256 -0.66374,-3.34983 -1.47499,-4.154608 -1.9801,-1.96432 -10.10775,-3.60273 -17.87202,-3.60273 -11.572402,0 -14.282242,2.466563 -12.430622,11.314662 1.27652,6.099986 4.432,11.257266 7.97631,13.036412 4.158152,2.087275 10.983362,1.557732 15.023312,-1.165605 z m -6.61292,-2.704163 c -5.09148,-2.896689 -6.05728,-9.144093 -2.03106,-13.138219 3.50459,-3.476649 6.87161,-3.154242 9.3973,0.899831 2.74251,4.402108 2.62002,8.043758 -0.37036,11.0103 -2.69389,2.672413 -4.04141,2.908964 -6.99588,1.228088 z m 5.4252,-8.125052 c 1.50179,-1.795131 0.52619,-3.490819 -2.00842,-3.490819 -1.20695,0 -1.92733,0.675002 -1.92733,1.805922 0,3.225572 1.94886,4.059878 3.93575,1.684897 z m 56.73644,11.025645 c 4.06094,-2.683269 6.71944,-7.71503 7.48853,-14.173585 0.48763,-4.094981 0.25477,-5.056374 -1.63391,-6.745693 -1.9158,-1.713584 -3.57821,-1.966965 -12.76774,-1.946038 -13.70578,0.03121 -16.39607,1.191495 -16.83495,7.26066 -0.41376,5.721732 1.12949,9.088254 6.35775,13.869073 3.82682,3.499317 4.90442,3.964941 9.17618,3.964941 3.37195,0 5.86363,-0.676254 8.21414,-2.229358 z m -17.62828,-6.039609 c -3.91006,-8.134129 4.52036,-16.349118 10.40305,-10.137202 4.6196,4.878149 1.18872,13.480927 -5.37635,13.480927 -2.90996,0 -3.65883,-0.498146 -5.0267,-3.343725 z m 6.64564,-5.078624 c 1.05239,-1.257946 1.00312,-1.79919 -0.27962,-3.0717 -1.8037,-1.789325 -3.7336,-0.994578 -3.7336,1.537525 0,3.227259 1.96754,3.979412 4.01322,1.534175 z M 143.79618,66.278429 c 6.26592,-2.75146 8.45329,-3.17865 18.28803,-3.571623 6.14396,-0.245498 11.17084,-0.799311 11.17084,-1.230696 0,-1.355136 -8.24158,-7.907484 -12.95094,-10.296459 -12.17154,-6.174401 -29.81123,-7.647213 -42.72666,-3.567427 -6.87078,2.170376 -16.73632,7.999495 -20.577872,12.158575 l -2.27967,2.468099 12.211032,0.466655 c 11.18745,0.427539 12.75066,0.727829 18.64878,3.582398 3.54077,1.713658 7.4866,3.115742 8.76852,3.115742 1.28192,0 5.53349,-1.406369 9.44794,-3.125264 z"
       id="path1"
       sodipodi:nodetypes="ssssssssscsssscsssssssssssssssscsssssssssssscsssscsssssssssssssssssssssssssssssssssssssssssssssssssssssscsscssccssssssssssssssssssssssssscsssssccsssssssscccsssssssssssssssscssssscsccssssscsssssccssssssssssssssssssssssssssssssssssssssssssssssssssssssssssssssssssssssssscssss" />
    <path
       style="fill:#007a9f;fill-opacity:1;stroke:none;stroke-width:1.37953;stroke-dasharray:none;stroke-opacity:1"
       id="path13"
       d="m 216.27921,167.5802 c -2.09673,-1.63402 -4.25148,-3.18956 -6.38895,-4.76926 -1.23782,-0.9476 -2.56115,-1.78472 -3.77897,-2.7592 -0.85257,-0.68222 -1.61659,-1.45761 -2.36998,-2.24451 -1.51006,-1.69905 -2.6046,-3.61828 -3.5294,-5.68077 -0.62392,-1.5257 -1.18277,-3.08323 -1.6029,-4.67865 -0.26345,-1.00045 -0.3508,-1.58426 -0.53817,-2.60262 -0.20737,-1.538 -0.35898,-3.09023 -0.40403,-4.64244 -0.017,-0.58652 -0.0424,-1.1747 -0.005,-1.76031 0.0793,-1.25585 0.3821,-2.74076 0.60166,-3.97072 0.53101,-2.47752 1.17088,-4.98372 2.5391,-7.14832 0.19194,-0.30366 0.41629,-0.58557 0.62444,-0.87835 1.51248,-1.8024 3.31647,-3.30706 5.10653,-4.81878 1.78206,-1.52782 3.60058,-3.05293 5.04418,-4.92007 0.35945,-0.4649 0.67985,-0.95874 1.01977,-1.43811 1.08508,-1.66638 2.15667,-3.3578 2.96944,-5.17839 0.40012,-0.89623 0.64552,-1.62584 0.97736,-2.54408 1.0791,-3.24978 1.26678,-6.67937 1.41052,-10.072537 0.001,-2.973343 -0.0238,-5.959942 -0.41743,-8.912132 -0.26035,-1.952406 -0.43437,-2.57787 -0.85384,-4.566367 -1.33048,-5.550918 -3.13248,-10.976712 -5.07089,-16.3412 -1.0435,-2.585461 -2.00313,-5.241296 -3.45647,-7.635992 -0.26633,-0.438838 -0.56523,-0.857055 -0.84785,-1.285582 -1.92455,-2.792165 -4.53884,-4.974128 -7.15808,-7.082995 -1.42612,-1.073358 -2.82755,-2.203423 -4.45495,-2.956304 -2.44222,-1.091928 -3.98644,2.361881 -1.54422,3.453809 v 0 c 1.35151,0.560852 2.42773,1.643383 3.6275,2.45014 2.31883,1.864378 4.65782,3.773315 6.37952,6.230463 0.23059,0.343129 0.47576,0.676894 0.69176,1.029386 1.35761,2.215511 2.22779,4.689921 3.20476,7.08309 1.88024,5.200588 3.62916,10.460104 4.92781,15.83952 0.3933,1.846735 0.5477,2.390107 0.79436,4.19606 0.37719,2.761539 0.38823,5.557477 0.39804,8.339478 -0.12503,3.009513 -0.26237,6.057593 -1.18986,8.948693 -0.24058,0.66994 -0.52993,1.5146 -0.81901,2.16922 -0.72439,1.64032 -1.69347,3.15852 -2.66376,4.66027 -0.27186,0.39109 -0.52714,0.79424 -0.81557,1.17328 -1.30051,1.70905 -2.98017,3.0742 -4.59412,4.46988 -2.03982,1.72265 -4.09006,3.44914 -5.76761,5.54354 -0.7787,1.13061 -0.93212,1.2715 -1.55703,2.51678 -1.10695,2.20584 -1.72329,4.61344 -2.2299,7.01678 -0.2992,1.7064 -0.55821,2.90316 -0.65943,4.64678 -0.0379,0.6526 -0.008,1.30767 0.0116,1.96107 0.0517,1.71062 0.22239,3.42082 0.4612,5.11445 0.23574,1.26183 0.30206,1.74385 0.63216,2.99269 0.46511,1.75958 1.08784,3.47608 1.78131,5.15693 0.20082,0.44127 0.38894,0.88855 0.60246,1.32381 0.96195,1.96096 2.21338,3.77705 3.64713,5.42071 0.74172,0.76871 0.94766,1.00912 1.7583,1.73505 1.5209,1.36196 3.23143,2.47752 4.8695,3.68925 2.18675,1.6157 4.38476,3.2152 6.53876,4.87446 2.2259,1.48393 4.32451,-1.66397 2.0986,-3.1479 z" />
    <path
       style="fill:#007a9f;stroke:none;stroke-width:1.37953;stroke-dasharray:none;stroke-opacity:1;fill-opacity:1"
       id="path13-0"
       d="m 51.593193,169.85564 c 2.09673,-1.63402 4.25148,-3.18956 6.38895,-4.76926 1.23782,-0.9476 2.56115,-1.78472 3.77897,-2.7592 0.85257,-0.68222 1.61659,-1.45761 2.36998,-2.24451 1.51006,-1.69905 2.6046,-3.61828 3.5294,-5.68077 0.62392,-1.5257 1.18277,-3.08323 1.6029,-4.67865 0.26345,-1.00045 0.3508,-1.58426 0.53817,-2.60262 0.20737,-1.538 0.35898,-3.09023 0.40403,-4.64244 0.017,-0.58652 0.0424,-1.1747 0.005,-1.76031 -0.0793,-1.25585 -0.3821,-2.74076 -0.60166,-3.97072 -0.53101,-2.47752 -1.17088,-4.98372 -2.5391,-7.14832 -0.19194,-0.30366 -0.41629,-0.58557 -0.62444,-0.87835 -1.51248,-1.8024 -3.31647,-3.30706 -5.10653,-4.81878 -1.78206,-1.52782 -3.60058,-3.05293 -5.04418,-4.92007 -0.35945,-0.4649 -0.67985,-0.95874 -1.01977,-1.43811 -1.08508,-1.66638 -2.15667,-3.3578 -2.96944,-5.17839 -0.40012,-0.89623 -0.64552,-1.62584 -0.97736,-2.54408 -1.0791,-3.24978 -1.26678,-6.67937 -1.41052,-10.072542 -10e-4,-2.973343 0.0238,-5.959942 0.41743,-8.912132 0.26035,-1.952406 0.43437,-2.57787 0.85384,-4.566367 1.33048,-5.550918 3.13248,-10.976712 5.07089,-16.3412 1.0435,-2.585461 2.00313,-5.241296 3.45647,-7.635992 0.26633,-0.438838 0.56523,-0.857055 0.84785,-1.285582 1.92455,-2.792165 4.53884,-4.974128 7.15808,-7.082995 1.42612,-1.073358 2.82755,-2.203423 4.45495,-2.956304 2.44222,-1.091928 3.98644,2.361881 1.54422,3.453809 v 0 c -1.35151,0.560852 -2.42773,1.643383 -3.6275,2.45014 -2.31883,1.864378 -4.65782,3.773315 -6.37952,6.230463 -0.23059,0.343129 -0.47576,0.676894 -0.69176,1.029386 -1.35761,2.215511 -2.22779,4.689921 -3.20476,7.08309 -1.88024,5.200588 -3.62916,10.460104 -4.92781,15.83952 -0.3933,1.846735 -0.5477,2.390107 -0.79436,4.19606 -0.37719,2.761539 -0.38823,5.557477 -0.39804,8.339478 0.12503,3.009518 0.26237,6.057598 1.18986,8.948698 0.24058,0.66994 0.52993,1.5146 0.81901,2.16922 0.72439,1.64032 1.69347,3.15852 2.66376,4.66027 0.27186,0.39109 0.52714,0.79424 0.81557,1.17328 1.30051,1.70905 2.98017,3.0742 4.59412,4.46988 2.03982,1.72265 4.09006,3.44914 5.76761,5.54354 0.7787,1.13061 0.93212,1.2715 1.55703,2.51678 1.10695,2.20584 1.72329,4.61344 2.2299,7.01678 0.2992,1.7064 0.55821,2.90316 0.65943,4.64678 0.0379,0.6526 0.008,1.30767 -0.0116,1.96107 -0.0517,1.71062 -0.22239,3.42082 -0.4612,5.11445 -0.23574,1.26183 -0.30206,1.74385 -0.63216,2.99269 -0.46511,1.75958 -1.08784,3.47608 -1.78131,5.15693 -0.20082,0.44127 -0.38894,0.88855 -0.60246,1.32381 -0.96195,1.96096 -2.21338,3.77705 -3.64713,5.42071 -0.74172,0.76871 -0.94766,1.00912 -1.7583,1.73505 -1.5209,1.36196 -3.23143,2.47752 -4.8695,3.68925 -2.18675,1.6157 -4.38476,3.2152 -6.53876,4.87446 -2.2259,1.48393 -4.32451,-1.66397 -2.0986,-3.1479 z" />
    <path
       d="m 78.576118,219.93406 q 0.249334,0.24934 0.249334,0.46934 0,0.19067 -0.102667,0.352 -0.088,0.16133 -0.249334,0.24933 -0.146667,0.088 -0.308001,0.088 -0.132,0 -0.249334,-0.0587 -0.102667,-0.0587 -0.22,-0.14667 -0.454668,-0.46934 -0.938669,-0.67467 -0.484001,-0.20533 -1.100002,-0.20533 -0.616002,0 -1.129336,0.22 -0.513335,0.22 -0.821336,0.60133 -0.308,0.38134 -0.308,0.85067 0,0.42534 0.22,0.792 0.234667,0.36667 0.777335,0.704 0.542668,0.32267 1.452004,0.67467 1.525336,0.572 2.258671,1.40801 0.733336,0.82133 0.733336,1.95067 0,0.95333 -0.484002,1.672 -0.484001,0.704 -1.349336,1.1 -0.865335,0.38134 -2.009338,0.38134 -0.674668,0 -1.29067,-0.132 -0.616001,-0.132 -1.144002,-0.38134 -0.513335,-0.24933 -0.909336,-0.60133 -0.132,-0.11734 -0.205333,-0.24934 -0.07333,-0.14666 -0.07333,-0.27866 0,-0.176 0.088,-0.32267 0.102667,-0.14667 0.249334,-0.23467 0.146667,-0.088 0.322668,-0.088 0.176,0 0.308,0.088 0.146667,0.0733 0.322668,0.23467 0.190667,0.176 0.572001,0.33733 0.381334,0.16134 0.836002,0.264 0.469334,0.10267 0.909335,0.10267 1.085336,0 1.789338,-0.49867 0.718668,-0.49866 0.718668,-1.30533 0,-0.484 -0.234667,-0.86534 -0.234667,-0.396 -0.806669,-0.76267 -0.557334,-0.36666 -1.584003,-0.77733 -1.42267,-0.572 -2.126672,-1.30534 -0.689335,-0.748 -0.689335,-1.804 0,-0.88 0.469335,-1.56934 0.484001,-0.68933 1.305336,-1.08533 0.836002,-0.39601 1.877338,-0.39601 0.894668,0 1.64267,0.30801 0.748002,0.308 1.232003,0.89466 z m 5.827348,10.45736 q -0.792001,0 -1.42267,-0.27867 -0.616001,-0.29333 -1.056002,-0.80666 -0.440001,-0.52801 -0.674668,-1.21734 -0.234667,-0.704 -0.234667,-1.52534 0,-0.792 0.293334,-1.54 0.293334,-0.76267 0.806668,-1.364 0.528001,-0.60134 1.217336,-0.95334 0.704002,-0.352 1.525337,-0.352 0.572001,0 1.026669,0.24933 0.469335,0.24934 0.748002,0.704 0.278667,0.44001 0.278667,1.04134 0,0.55734 -0.278667,1.12934 -0.278667,0.55733 -0.894669,1.02667 -0.601335,0.46933 -1.569337,0.76266 -0.968002,0.27867 -2.361339,0.27867 v -1.20267 q 1.026669,0.044 1.877338,-0.20533 0.865335,-0.24934 1.393337,-0.71867 0.528001,-0.484 0.528001,-1.08534 0,-0.33733 -0.220001,-0.55733 -0.205334,-0.22 -0.630668,-0.22 -0.440001,0 -0.865335,0.23467 -0.425334,0.22 -0.777335,0.63066 -0.337334,0.39601 -0.542668,0.93867 -0.205334,0.54267 -0.205334,1.15867 0,0.704 0.220001,1.30534 0.234667,0.60133 0.674668,0.968 0.440001,0.36667 1.056002,0.36667 0.572001,0 1.114669,-0.22 0.542668,-0.23467 1.056003,-0.86534 0.190667,-0.23466 0.337334,-0.32266 0.161334,-0.088 0.308001,-0.088 0.234667,0 0.381334,0.17601 0.146667,0.16133 0.146667,0.44 0,0.19066 -0.132,0.42533 -0.117334,0.22 -0.410668,0.51334 -0.542668,0.572 -1.261336,0.88 -0.704002,0.29333 -1.452004,0.29333 z m 5.138,-3.60801 q 0,-1.34933 0.484001,-2.27334 0.498668,-0.93866 1.305337,-1.42267 0.821335,-0.484 1.774671,-0.484 0.352,0 0.689334,0.0587 0.337335,0.0587 0.660002,0.16133 0.337334,0.10267 0.630668,0.264 l 0.07333,-0.264 q 0.05867,-0.176 0.234667,-0.29333 0.176,-0.132 0.366667,-0.132 0.293334,0 0.484001,0.19067 0.205334,0.176 0.205334,0.46933 0,0.22 -0.044,0.64534 -0.044,0.41066 -0.146667,0.99733 -0.088,0.572 -0.249334,1.232 -0.146667,0.66001 -0.366667,1.36401 0,0.73333 0.102667,1.15867 0.102667,0.42533 0.293334,0.60133 0.190667,0.16134 0.469334,0.16134 0.205334,0 0.381334,-0.20534 0.176001,-0.20533 0.352001,-0.528 0.07333,-0.11733 0.176,-0.19067 0.117334,-0.088 0.308001,-0.088 0.234667,0 0.381334,0.19067 0.161334,0.176 0.161334,0.41067 0,0.16133 -0.07333,0.36667 -0.07333,0.19066 -0.190668,0.352 -0.293334,0.396 -0.733335,0.66 -0.425334,0.264 -0.938668,0.264 -0.381335,0 -0.733335,-0.16134 -0.352001,-0.16133 -0.616002,-0.484 -0.249334,-0.33733 -0.396001,-0.82133 -0.469334,0.68933 -1.041335,1.02667 -0.572002,0.33733 -1.305337,0.33733 -0.821335,0 -1.437336,-0.44 -0.601335,-0.45467 -0.938669,-1.24667 -0.322668,-0.80667 -0.322668,-1.87734 z m 1.364004,-0.088 q 0,0.528 0.102666,0.968 0.102667,0.44001 0.293334,0.76267 0.190668,0.32267 0.469335,0.49867 0.278667,0.176 0.630668,0.176 0.718668,0 1.144003,-0.51333 0.425334,-0.51334 0.850668,-1.36401 0,-0.572 0.044,-1.12933 0.05867,-0.55734 0.132001,-1.02667 0.088,-0.46934 0.190667,-0.77734 -0.440001,-0.22 -0.821336,-0.33733 -0.366667,-0.132 -0.748001,-0.132 -0.645335,0 -1.173336,0.33733 -0.513335,0.32267 -0.821335,0.96801 -0.293334,0.63066 -0.293334,1.56933 z m 21.21739,-7.52401 q 0.16134,0.10266 0.23467,0.24933 0.0733,0.132 0.0733,0.308 0,0.16133 -0.088,0.308 -0.088,0.14667 -0.23466,0.23467 -0.14667,0.088 -0.32267,0.088 -0.0587,0 -0.176,-0.044 -0.11734,-0.044 -0.27867,-0.10267 -0.14667,-0.0587 -0.32267,-0.10267 -0.16133,-0.044 -0.33733,-0.0587 -0.176,-0.0293 -0.33733,-0.0293 -0.70401,0 -1.34934,0.36667 -0.64534,0.352 -1.15867,0.98267 -0.49867,0.616 -0.792,1.42267 -0.29334,0.792 -0.29334,1.672 0,1.34934 0.44,2.43468 0.44001,1.08533 1.20267,1.716 0.77734,0.63067 1.73068,0.63067 0.67466,0 1.276,-0.352 0.616,-0.352 1.08533,-0.968 0.46934,-0.61601 0.73334,-1.40801 0.27867,-0.80667 0.27867,-1.70133 0,-0.60134 -0.16134,-1.30534 -0.14666,-0.71867 -0.42533,-1.364 -0.264,-0.66001 -0.60134,-1.10001 -0.10266,-0.14666 -0.19066,-0.29333 -0.088,-0.14667 -0.088,-0.33734 0,-0.27866 0.176,-0.46933 0.19066,-0.20533 0.45466,-0.20533 0.10267,0 0.20534,0.044 0.10266,0.0293 0.19067,0.088 0.088,0.0587 0.14666,0.132 0.49867,0.55733 0.86534,1.33467 0.36666,0.76267 0.572,1.64267 0.22,0.86533 0.22,1.74533 0,1.26134 -0.352,2.31734 -0.352,1.05601 -0.99734,1.83334 -0.63067,0.77734 -1.51067,1.20267 -0.86533,0.42533 -1.92134,0.42533 -1.012,0 -1.87733,-0.45466 -0.85067,-0.45467 -1.48134,-1.27601 -0.63067,-0.82133 -0.98267,-1.92133 -0.352,-1.11467 -0.352,-2.40534 0,-1.18801 0.38134,-2.22934 0.396,-1.04134 1.07066,-1.81867 0.68934,-0.77734 1.58401,-1.21734 0.90933,-0.44 1.95067,-0.44 0.51333,0 0.95333,0.10267 0.44001,0.10266 0.80667,0.32267 z m 6.28202,1.65733 q 0.0293,-0.29333 0.20534,-0.44 0.19067,-0.14667 0.45467,-0.14667 0.176,0 0.33733,0.0733 0.176,0.0587 0.27867,0.19067 0.10266,0.132 0.0733,0.33733 -0.11733,0.93867 -0.20533,1.804 -0.0733,0.86534 -0.11734,1.71601 -0.044,0.85067 -0.044,1.76 0.0147,1.11467 0.088,1.78934 0.088,0.66 0.20534,0.95333 0.11733,0.29334 0.20533,0.29334 0.132,0 0.33733,-0.16134 0.20534,-0.176 0.39601,-0.38133 0.20533,-0.22 0.29333,-0.32267 0.088,-0.10266 0.19067,-0.132 0.11733,-0.044 0.22,-0.044 0.176,0 0.32266,0.088 0.14667,0.088 0.23467,0.23467 0.088,0.14667 0.088,0.32267 0,0.10266 -0.0587,0.22 -0.044,0.11733 -0.16134,0.264 -0.29333,0.38133 -0.64533,0.64533 -0.33734,0.264 -0.67467,0.396 -0.33734,0.132 -0.66,0.132 -0.572,0 -0.98267,-0.41066 -0.396,-0.42534 -0.55734,-1.32001 -0.10266,-0.64533 -0.16133,-1.29067 -0.044,-0.66 -0.044,-1.32 0,-0.89467 0.044,-1.716 0.044,-0.82134 0.132,-1.67201 0.088,-0.86533 0.20533,-1.86267 z m -0.76266,2.94801 q -0.27867,0.0147 -0.44001,-0.16133 -0.14666,-0.19067 -0.14666,-0.45467 0,-0.24934 0.14666,-0.42534 0.16134,-0.176 0.44001,-0.19066 0.38133,-0.0293 0.792,-0.044 0.42533,-0.0293 0.88,-0.0293 0.45467,-0.0147 0.98267,-0.0147 0.528,-0.0147 1.12933,-0.0147 0.24934,0 0.42534,0.176 0.176,0.176 0.19067,0.45467 0,0.264 -0.19067,0.44 -0.19067,0.16133 -0.42534,0.16133 -0.616,0 -1.056,0.0147 -0.44,0 -0.836,0.0147 -0.396,0 -0.836,0.0293 -0.44,0.0147 -1.056,0.044 z m 7.33802,-2.69867 q 0.0293,-0.32267 0.22,-0.46934 0.19067,-0.14666 0.44001,-0.14666 0.176,0 0.33733,0.0733 0.16133,0.0587 0.24933,0.19067 0.10267,0.132 0.10267,0.352 -0.0733,1.33467 -0.22,2.728 -0.132,1.37867 -0.132,2.77201 0,0.99733 0.0587,1.52534 0.0587,0.528 0.16133,0.71866 0.10267,0.176 0.20533,0.176 0.264,0 0.42534,-0.176 0.16133,-0.176 0.27867,-0.38133 0.10266,-0.16133 0.24933,-0.264 0.14667,-0.11733 0.32267,-0.11733 0.24933,0 0.42533,0.16133 0.176,0.16133 0.176,0.45467 0,0.176 -0.132,0.44 -0.132,0.264 -0.38133,0.528 -0.24934,0.24933 -0.616,0.42533 -0.352,0.176 -0.80667,0.176 -0.616,0 -0.968,-0.308 -0.33734,-0.308 -0.51334,-0.82133 -0.16133,-0.528 -0.20533,-1.188 -0.044,-0.66001 -0.044,-1.36401 0,-0.85067 0.0587,-1.77467 0.0587,-0.93867 0.14667,-1.87734 0.088,-0.95333 0.16133,-1.83333 z m -0.76266,2.75734 q -0.24934,0 -0.41067,-0.20534 -0.16134,-0.20533 -0.16134,-0.44 0,-0.27867 0.22001,-0.42533 0.23466,-0.14667 0.616,-0.19067 0.396,-0.0587 0.86533,-0.0587 0.51334,0 0.99734,0.0293 0.49867,0.0147 0.89467,0.0587 0.41066,0.044 0.63066,0.088 0.24934,0.044 0.35201,0.19067 0.10266,0.132 0.10266,0.32267 0,0.24933 -0.16133,0.46933 -0.14667,0.20534 -0.396,0.20534 -0.23467,0 -0.704,-0.0587 -0.45467,-0.0587 -1.29067,-0.0587 -0.396,0 -0.64534,0.0147 -0.23467,0.0147 -0.44,0.044 -0.19067,0.0147 -0.46933,0.0147 z m 5.82734,2.88934 q 0,-0.71867 0.20533,-1.48134 0.20534,-0.76267 0.63067,-1.408 0.44,-0.66001 1.144,-1.05601 0.71867,-0.41066 1.73067,-0.41066 0.60134,0 1.14401,0.20533 0.54267,0.19067 0.88,0.616 0.33733,0.41067 0.33733,1.056 0,0.74801 -0.45466,1.32001 -0.45467,0.572 -1.17334,0.98267 -0.71867,0.396 -1.52534,0.64533 -0.80667,0.23467 -1.496,0.32267 0.10267,0.85067 0.572,1.29067 0.484,0.44 1.26134,0.44 0.77733,0 1.408,-0.32267 0.64534,-0.33733 1.188,-0.924 0.088,-0.088 0.19067,-0.132 0.11733,-0.044 0.22,-0.044 0.176,0 0.308,0.0733 0.14667,0.0587 0.23467,0.19067 0.088,0.132 0.088,0.308 0,0.10267 -0.0587,0.23467 -0.0587,0.132 -0.132,0.23466 -0.38133,0.52801 -0.98267,0.89467 -0.60133,0.352 -1.276,0.528 -0.66,0.176 -1.26134,0.176 -1.12933,0 -1.83333,-0.528 -0.70401,-0.54266 -1.02667,-1.39333 -0.32267,-0.86534 -0.32267,-1.81867 z m 1.364,-0.36667 q 0.968,-0.16134 1.73067,-0.49867 0.76267,-0.33733 1.20267,-0.76267 0.45467,-0.42533 0.45467,-0.82133 0,-0.264 -0.24933,-0.484 -0.24934,-0.22 -0.82134,-0.22 -0.528,0 -1.02667,0.24933 -0.49867,0.24933 -0.85067,0.85067 -0.33733,0.60133 -0.44,1.68667 z m 8.23269,-3.09468 q 0.0147,-0.33733 0.22,-0.484 0.20534,-0.16133 0.48401,-0.16133 0.24933,0 0.44,0.14667 0.20533,0.14666 0.20533,0.44 -0.0147,0.19067 -0.0293,0.49867 -0.0147,0.29333 -0.0147,0.64533 0.352,-0.71867 0.836,-1.188 0.484,-0.484 1.02667,-0.73334 0.54267,-0.24933 1.04134,-0.24933 0.32266,0 0.68933,0.10267 0.36667,0.088 0.58667,0.29333 0.132,0.10267 0.19067,0.24933 0.0733,0.132 0.0733,0.29334 0,0.27867 -0.19067,0.46933 -0.19066,0.176 -0.484,0.176 -0.176,0 -0.29333,-0.0587 -0.11734,-0.0733 -0.24934,-0.132 -0.132,-0.0733 -0.352,-0.0733 -0.44,0 -0.86533,0.24934 -0.41067,0.23466 -0.73334,0.616 -0.32266,0.38133 -0.51333,0.80667 -0.19067,0.42533 -0.352,0.93866 -0.14667,0.49867 -0.27867,1.11467 -0.11733,0.60134 -0.20533,1.32001 -0.088,0.71867 -0.16134,1.56933 -0.0147,0.23467 -0.22,0.352 -0.20533,0.13201 -0.46933,0.13201 -0.24934,0 -0.46934,-0.16134 -0.20533,-0.14667 -0.19066,-0.45467 0.044,-1.08533 0.088,-2.21467 0.0587,-1.144 0.10266,-2.288 0.044,-1.14401 0.088,-2.21468 z m 20.23473,-3.15334 q 0.19067,0.20534 0.19067,0.44001 0,0.176 -0.10267,0.33733 -0.088,0.16133 -0.24933,0.264 -0.14667,0.088 -0.32267,0.088 -0.11733,0 -0.24933,-0.0733 -0.11734,-0.0733 -0.32267,-0.264 -0.308,-0.33734 -0.86534,-0.55734 -0.54266,-0.22 -1.276,-0.22 -0.67467,0 -1.21733,0.22 -0.52801,0.20534 -0.83601,0.58667 -0.308,0.36667 -0.308,0.86533 0,0.29334 0.14667,0.57201 0.16133,0.264 0.572,0.54266 0.42534,0.264 1.21734,0.57201 1.056,0.396 1.83333,0.89466 0.79201,0.49867 1.21734,1.18801 0.42534,0.68933 0.42534,1.68667 0,0.85067 -0.39601,1.59867 -0.38133,0.73333 -1.232,1.188 -0.85067,0.45467 -2.21467,0.45467 -0.396,0 -0.93867,-0.11734 -0.528,-0.10266 -1.04133,-0.29333 -0.49867,-0.20533 -0.83601,-0.49867 -0.32266,-0.308 -0.32266,-0.67467 0,-0.20533 0.0733,-0.33733 0.088,-0.14667 0.22,-0.22 0.14667,-0.088 0.29333,-0.088 0.16134,0 0.308,0.088 0.16134,0.088 0.35201,0.24933 0.308,0.264 0.792,0.45467 0.49867,0.176 1.04133,0.176 1.29067,0 1.92134,-0.49867 0.63067,-0.49866 0.63067,-1.43733 0,-0.704 -0.33734,-1.15867 -0.33733,-0.46934 -0.89466,-0.77734 -0.55734,-0.32266 -1.24667,-0.58667 -0.572,-0.22 -1.10001,-0.484 -0.528,-0.264 -0.95333,-0.60133 -0.42534,-0.352 -0.67467,-0.80667 -0.23467,-0.45467 -0.23467,-1.07067 0,-0.71867 0.32267,-1.26133 0.33733,-0.55734 0.88,-0.93867 0.55734,-0.38134 1.23201,-0.572 0.67466,-0.19067 1.34933,-0.19067 0.60134,0 1.17334,0.14667 0.572,0.132 1.08533,0.41066 0.51334,0.27867 0.89467,0.704 z m 3.42203,0.88001 q 0.0293,-0.24934 0.20533,-0.352 0.19067,-0.11734 0.396,-0.11734 0.19067,0 0.36667,0.088 0.19067,0.0733 0.29333,0.24934 0.10267,0.176 0.0293,0.45466 -0.0587,0.33734 -0.11734,0.68934 -0.0587,0.33733 -0.11733,0.704 -0.0293,0.24933 -0.0733,0.71867 -0.044,0.45467 -0.088,0.98267 -0.0293,0.528 -0.0587,0.99733 -0.0293,0.45467 -0.0293,0.71867 0,0.68934 0.044,1.32 0.0587,0.63067 0.16134,1.02667 0.0733,0.308 0.19067,0.51334 0.11733,0.20533 0.24933,0.20533 0.10267,0 0.23467,-0.0587 0.14666,-0.0587 0.352,-0.24933 0.11733,-0.11733 0.27866,-0.176 0.16134,-0.0733 0.26401,-0.0733 0.176,0 0.308,0.088 0.14666,0.088 0.23466,0.23466 0.088,0.132 0.088,0.27867 0,0.16134 -0.088,0.308 -0.0733,0.132 -0.19066,0.264 -0.264,0.264 -0.70401,0.45467 -0.42533,0.176 -0.85066,0.176 -0.46934,0 -0.83601,-0.23467 -0.352,-0.23466 -0.55733,-0.64533 -0.19067,-0.33733 -0.308,-0.85067 -0.10267,-0.528 -0.16134,-1.07067 -0.044,-0.55733 -0.0587,-0.99733 -0.0147,-0.45467 -0.0147,-0.63067 0,-1.27601 0.176,-2.53734 0.176,-1.276 0.38134,-2.47867 z m -0.61601,2.96267 q -0.36666,0.044 -0.528,-0.14667 -0.14666,-0.20533 -0.14666,-0.44 0,-0.24933 0.14666,-0.41067 0.14667,-0.176 0.45467,-0.22 0.528,-0.0733 1.07067,-0.11733 0.55733,-0.0587 1.1,-0.088 0.55734,-0.044 1.07067,-0.0733 0.264,-0.0147 0.42534,0.176 0.176,0.176 0.19066,0.41066 0.0147,0.27867 -0.176,0.45467 -0.19066,0.176 -0.44,0.19067 -0.51333,0.0293 -1.056,0.0733 -0.54267,0.0293 -1.08534,0.088 -0.528,0.044 -1.02667,0.10267 z m 6.16468,-1.11467 q 0.0587,-0.23467 0.22,-0.352 0.16133,-0.11733 0.38133,-0.11733 0.24933,0 0.42533,0.11733 0.176,0.10267 0.24934,0.29333 0.088,0.176 0.0293,0.396 -0.0587,0.27867 -0.14667,0.79201 -0.0733,0.49866 -0.132,1.056 -0.0587,0.54267 -0.0587,0.98267 0,0.90933 0.19066,1.61333 0.20534,0.70401 0.55734,1.10001 0.36667,0.38133 0.836,0.38133 0.49867,0 0.98267,-0.41067 0.484,-0.41066 0.85067,-1.144 0.38133,-0.748 0.55733,-1.716 0.044,-0.60134 0.0587,-1.05601 0.0293,-0.46933 0.0293,-0.88 0.0147,-0.42533 0.0147,-0.88 0,-0.308 0.19067,-0.46933 0.20533,-0.176 0.484,-0.176 0.41067,0 0.54267,0.264 0.14666,0.264 0.14666,1.02667 0,0.58666 -0.044,1.17333 -0.044,0.58667 -0.132,1.056 -0.0293,0.76267 -0.0587,1.23201 -0.0147,0.46933 -0.0293,0.76267 0,0.29333 0,0.572 0,0.49866 0.0147,0.82133 0.0147,0.308 0.044,0.63067 0.0293,0.23467 -0.176,0.42533 -0.19067,0.20534 -0.49867,0.20534 -0.33733,0 -0.51333,-0.27867 -0.176,-0.27867 -0.176,-0.748 0,-0.132 0,-0.23467 0,-0.11733 0,-0.23467 0.0147,-0.132 0.0147,-0.308 -0.54266,0.85067 -1.15867,1.24667 -0.616,0.38134 -1.26133,0.38134 -0.836,0 -1.48134,-0.528 -0.63067,-0.54267 -0.99733,-1.49601 -0.35201,-0.968 -0.35201,-2.244 0,-0.66 0.10267,-1.49601 0.10267,-0.836 0.29334,-1.76 z m 8.87801,3.60801 q 0,-0.792 0.22,-1.52534 0.22,-0.73333 0.67467,-1.30533 0.45467,-0.58667 1.12934,-0.92401 0.68933,-0.33733 1.61333,-0.33733 0.38134,0 0.748,0.0733 0.36667,0.0587 0.71867,0.20534 0.0733,-0.86534 0.16134,-1.73067 0.10266,-0.86534 0.24933,-1.86267 0.0293,-0.14667 0.132,-0.23467 0.10267,-0.10267 0.23467,-0.14667 0.14666,-0.0587 0.29333,-0.0587 0.352,0 0.51334,0.22 0.16133,0.22001 0.16133,0.63067 0,0.20534 -0.088,0.77734 -0.0733,0.55733 -0.176,1.276 -0.088,0.704 -0.16133,1.33467 -0.10267,0.95334 -0.132,1.936 -0.0147,0.96801 -0.0147,2.03868 0,0.748 0.0147,1.48133 0.0293,0.73334 0.0587,1.45201 0.0147,0.308 -0.19066,0.45466 -0.20534,0.14667 -0.45467,0.14667 -0.27867,0 -0.484,-0.14667 -0.20534,-0.14666 -0.22,-0.45466 0,-0.22 -0.0147,-0.44 0,-0.23467 -0.0147,-0.48401 0,-0.24933 -0.0147,-0.51333 -0.36667,0.89467 -0.90934,1.51067 -0.54267,0.60133 -1.42267,0.60133 -0.66,0 -1.15867,-0.352 -0.49867,-0.36666 -0.82133,-0.95333 -0.32267,-0.60134 -0.48401,-1.29067 -0.16133,-0.704 -0.16133,-1.37867 z m 1.34934,-0.16133 q 0,0.86533 0.19066,1.52533 0.20534,0.64534 0.51334,1.012 0.32267,0.35201 0.67467,0.35201 0.396,0 0.73333,-0.39601 0.33734,-0.41066 0.616,-1.07066 0.27867,-0.67467 0.45467,-1.45201 0.11733,-0.46933 0.19067,-0.85067 0.088,-0.38133 0.132,-0.73333 0.044,-0.36667 0.0733,-0.748 -0.20533,-0.10267 -0.42533,-0.176 -0.22,-0.0733 -0.45467,-0.11734 -0.22,-0.044 -0.45467,-0.044 -0.528,0 -1.056,0.264 -0.51333,0.24934 -0.85067,0.836 -0.33733,0.58667 -0.33733,1.59868 z m 8.482,-3.32935 q 0,-0.20533 0.088,-0.33733 0.10267,-0.132 0.24933,-0.19067 0.16134,-0.0733 0.32267,-0.0733 0.29333,0 0.484,0.14667 0.20533,0.14666 0.20533,0.45466 0,1.05601 -0.044,1.87734 -0.0293,0.82134 -0.0733,1.56934 -0.044,0.748 -0.088,1.584 -0.0293,0.82134 -0.044,1.90667 0,0.27867 -0.19067,0.45467 -0.19066,0.176 -0.46933,0.176 -0.29333,0 -0.44,-0.132 -0.14667,-0.132 -0.20534,-0.33733 -0.044,-0.20534 -0.044,-0.42534 0,-0.132 0.0147,-0.64533 0.0293,-0.51334 0.0587,-1.26134 0.044,-0.76267 0.088,-1.61334 0.044,-0.86533 0.0587,-1.68667 0.0293,-0.82133 0.0293,-1.46667 z m -0.20534,-3.09467 q 0,-0.24933 0.10267,-0.49867 0.11734,-0.264 0.308,-0.44 0.19067,-0.176 0.44,-0.176 0.46934,0 0.68934,0.19067 0.23467,0.19067 0.308,0.42533 0.0733,0.23467 0.0733,0.36667 0,0.396 -0.308,0.71867 -0.29333,0.32267 -0.704,0.32267 -0.36667,0 -0.64533,-0.264 -0.26401,-0.26401 -0.26401,-0.64534 z m 7.7047,2.43467 q 0.33734,0 0.67467,0.0733 0.33733,0.0587 0.63067,0.19066 0.29333,0.11734 0.49867,0.308 0.67466,0.54267 0.98267,1.40801 0.32266,0.86533 0.32266,1.81867 0,0.80667 -0.20533,1.56933 -0.20533,0.74801 -0.60134,1.36401 -0.396,0.60133 -0.968,0.968 -0.572,0.352 -1.30533,0.352 -0.74801,0 -1.39334,-0.32267 -0.63067,-0.32266 -1.11467,-0.88 -0.484,-0.55733 -0.748,-1.276 -0.264,-0.73334 -0.264,-1.54 0,-0.76267 0.22,-1.48134 0.23467,-0.71867 0.67467,-1.29067 0.45466,-0.58667 1.1,-0.924 0.66,-0.33734 1.496,-0.33734 z m -2.14134,3.93068 q 0,0.73333 0.24934,1.39333 0.24933,0.64534 0.71867,1.05601 0.484,0.396 1.15867,0.396 0.46933,0 0.80666,-0.24934 0.33734,-0.264 0.55734,-0.68933 0.22,-0.44 0.32267,-0.95334 0.10266,-0.51333 0.10266,-1.012 0,-0.89467 -0.29333,-1.51067 -0.27867,-0.63067 -0.76267,-0.968 -0.19067,-0.0587 -0.38133,-0.0733 -0.176,-0.0293 -0.36667,-0.0293 -0.49867,0 -0.89467,0.22 -0.396,0.20534 -0.67467,0.58667 -0.264,0.36667 -0.41067,0.836 -0.132,0.46934 -0.132,0.99734 z"
       id="text13"
       style="font-size:14.6667px;font-family:'Playpen Sans';-inkscape-font-specification:'Playpen Sans, ';letter-spacing:0.65px;fill:#007a9f;stroke:#007a9f;stroke-width:0.4"
       aria-label="Sea Otter Studio" />
  </g>
</svg>
